<?xml version="1.0" encoding="UTF-8" standalone="no"?>
<!-- Created with Inkscape (http://www.inkscape.org/) -->

<svg
   width="210mm"
   height="297mm"
   viewBox="0 0 210 297"
   version="1.1"
   id="svg5"
   sodipodi:docname="vector.svg"
   inkscape:version="1.1.1 (3bf5ae0d25, 2021-09-20)"
   xmlns:inkscape="http://www.inkscape.org/namespaces/inkscape"
   xmlns:sodipodi="http://sodipodi.sourceforge.net/DTD/sodipodi-0.dtd"
   xmlns="http://www.w3.org/2000/svg"
   xmlns:svg="http://www.w3.org/2000/svg">
  <sodipodi:namedview
     id="namedview7"
     pagecolor="#ffffff"
     bordercolor="#666666"
     borderopacity="1.0"
     inkscape:pageshadow="2"
     inkscape:pageopacity="0.0"
     inkscape:pagecheckerboard="0"
     inkscape:document-units="mm"
     showgrid="false"
     showborder="false"
     inkscape:zoom="0.74118967"
     inkscape:cx="250.27332"
     inkscape:cy="-215.19458"
     inkscape:window-width="1920"
     inkscape:window-height="1017"
     inkscape:window-x="1912"
     inkscape:window-y="-8"
     inkscape:window-maximized="1"
     inkscape:current-layer="layer1"
     inkscape:lockguides="false" />
  <defs
     id="defs2" />
  <g
     inkscape:label="Layer 1"
     inkscape:groupmode="layer"
     id="layer1">
    <path
       style="opacity:0.99;fill:#782121;stroke-width:0.365118"
       d="m -70.99519,-160.82204 -71.42856,200 244.33496,-62.561568 -210.83742,33.497534 z"
       id="rect130" />
    <path
       style="opacity:1;fill:#666666;stroke-width:0.405834"
       d="m 18.659978,-55.157 c 0,35.23195 -99.195288,136.206887 -73.39901,63.793094 13.329442,-37.417656 -70.443358,-28.561148 -70.443358,-63.793094 0,-35.23196 90.399118,-100.44008 72.906404,-64.77834 -54.367684,110.837436 70.935964,29.54636 70.935964,64.77834 z"
       id="path154" />
    <path
       style="fill:#ffffff;stroke-width:0.26243"
       d="m 11.090086,-51.84226 c 0,12.3176 -25.279908,43.442482 -38.181656,57.84382 -12.901734,14.40134 -25.965124,16.25908 -18.251852,-9.057854 7.971206,-26.163536 -73.136988,-29.378 -73.475708,-54.010886 -0.1742,-12.66596 2.89098,-15.59384 29.7717,-42.89118 11.68184,-11.86288 33.3393,-24.62484 28.10884,-12.15696 -16.25634,38.7504 -12.61772,54.88768 15.288032,57.45018 19.518752,1.79234 56.740644,-9.49474 56.740644,2.82288 z"
       id="path154-1"
       sodipodi:nodetypes="ssssssss" />
  </g>
  <g
     inkscape:groupmode="layer"
     id="layer2"
     inkscape:label="Layer 2">
    <path
       id="rect130-1"
       style="opacity:0.99;fill:#782121;stroke-width:0.365118"
       d="m -120.10949,17.1738 -22.31426,22.00416 244.33497,-62.561568 -210.83743,33.497534 z"
       sodipodi:nodetypes="ccccc" />
  </g>
</svg>
